<svg xmlns="http://www.w3.org/2000/svg" viewBox="0 0 256 256" role="img" aria-label="Retail Tower OS Data-Pulse-2 logo: database core in purple">
  <title>Retail Tower OS — Data-Pulse-2</title>
  <defs>
    <linearGradient id="bg" x1="0" y1="0" x2="0" y2="1">
      <stop offset="0" stop-color="#7c3aed"/><stop offset="1" stop-color="#3b1283"/>
    </linearGradient>
    <linearGradient id="hi" x1="0" y1="0" x2="0" y2="1">
      <stop offset="0" stop-color="#ffffff" stop-opacity="0.30"/><stop offset="1" stop-color="#ffffff" stop-opacity="0"/>
    </linearGradient>
    <radialGradient id="gl" cx="0.5" cy="0.5" r="0.5">
      <stop offset="0" stop-color="#a78bfa" stop-opacity="0.55"/><stop offset="1" stop-color="#a78bfa" stop-opacity="0"/>
    </radialGradient>
    <linearGradient id="chrome" x1="0" y1="0" x2="0" y2="1">
      <stop offset="0" stop-color="#ffffff" stop-opacity="0.98"/><stop offset="1" stop-color="#cbd5e1" stop-opacity="0.78"/>
    </linearGradient>
    <filter id="ds" x="-25%" y="-25%" width="150%" height="160%">
      <feDropShadow dx="0" dy="6" stdDeviation="8" flood-color="#000000" flood-opacity="0.45"/>
    </filter>
  </defs>
  <rect x="16" y="16" width="224" height="224" rx="54" fill="url(#bg)" filter="url(#ds)"/>
  <rect x="16" y="16" width="224" height="120" rx="54" fill="url(#hi)"/>
  <circle cx="128" cy="130" r="78" fill="url(#gl)"/>
  <g transform="translate(88,82)" fill="url(#chrome)">
    <ellipse cx="40" cy="13" rx="40" ry="13" fill="#5b21b6" stroke="url(#chrome)" stroke-width="3"/>
    <path d="M0 13 V84 a40 13 0 0 0 80 0 V13" fill="#6d28d9" stroke="url(#chrome)" stroke-width="3"/>
    <ellipse cx="40" cy="40" rx="40" ry="13" fill="none" stroke="url(#chrome)" stroke-width="2.4" opacity="0.65"/>
    <ellipse cx="40" cy="66" rx="40" ry="13" fill="none" stroke="url(#chrome)" stroke-width="2.4" opacity="0.45"/>
    <ellipse cx="40" cy="13" rx="40" ry="13" fill="#7c3aed"/>
  </g>
  <rect x="16.5" y="16.5" width="223" height="223" rx="53.5" fill="none" stroke="#ffffff" stroke-opacity="0.18" stroke-width="2"/>
</svg>
