<svg xmlns="http://www.w3.org/2000/svg" width="1200" height="720" fill="none" aria-labelledby="t d" font-family="system-ui, ui-sans-serif, sans-serif" font-size="12" role="img" viewBox="0 0 1200 720"><title id="t">Retail Tower OS — Animated System Map</title><desc id="d">Platform topology showing clients, API gateway, packages, PostgreSQL, Redis, and worker runtime — with animated data flow tokens travelling along authenticated paths.</desc><defs><linearGradient id="bg" x1="0" x2="0" y1="0" y2="1"><stop offset="0" stop-color="#0B1220"/><stop offset="1" stop-color="#0D1117"/></linearGradient><linearGradient id="zone-gold" x1="0" x2="0" y1="0" y2="1"><stop offset="0" stop-color="#1A1F2A"/><stop offset="1" stop-color="#101620"/></linearGradient><linearGradient id="gold" x1="0" x2="0" y1="0" y2="1"><stop offset="0" stop-color="#F0CB6B"/><stop offset=".55" stop-color="#C8A24A"/><stop offset="1" stop-color="#7A5A14"/></linearGradient><linearGradient id="cyan" x1="0" x2="0" y1="0" y2="1"><stop offset="0" stop-color="#A8F4FB"/><stop offset="1" stop-color="#22D6F6"/></linearGradient><linearGradient id="hi" x1="0" x2="0" y1="0" y2="1"><stop offset="0" stop-color="#fff" stop-opacity=".32"/><stop offset=".4" stop-color="#fff" stop-opacity="0"/></linearGradient><filter id="drop" width="160%" height="160%" x="-30%" y="-30%"><feDropShadow dx="0" dy="4" flood-color="#000" flood-opacity=".6" stdDeviation="4"/></filter><filter id="glow" width="300%" height="300%" x="-100%" y="-100%"><feGaussianBlur stdDeviation="4"/></filter><marker id="arrow-cyan" markerHeight="10" markerWidth="10" orient="auto" refX="8" refY="3.5"><path fill="#22D6F6" d="M0 0 L8 3.5 L0 7 z"/></marker><marker id="arrow-gold" markerHeight="10" markerWidth="10" orient="auto" refX="8" refY="3.5"><path fill="#C8A24A" d="M0 0 L8 3.5 L0 7 z"/></marker><marker id="arrow-dim" markerHeight="10" markerWidth="10" orient="auto" refX="8" refY="3.5"><path fill="#8B949E" d="M0 0 L8 3.5 L0 7 z"/></marker><style>.zone-label{font-size:11px;font-weight:700;letter-spacing:1.5px;fill:#c8a24a}.heading{font-size:13px;font-weight:700;fill:#e6edf3}.sub{font-size:10.5px;fill:#8b949e}.flow-label,.sub2{font-size:9.5px}.sub2{fill:#8b949e}.flow-label{fill:#22d6f6;font-weight:600}.flow-dim{font-size:9.5px;fill:#8b949e}</style><path id="m1" d="M150 130 V210"/><path id="m2" d="M380 130 V210"/><path id="m3" d="M960 145 C870 170 730 180 600 230"/><path id="m4" d="M170 340 V450"/><path id="m5" d="M380 370 L520 490"/><path id="m6" d="M740 490 L890 490"/><path id="m7" d="M1010 450 V340"/></defs><rect width="1200" height="720" fill="url(#bg)"/><g stroke="#1F2A37" stroke-width=".5" opacity=".4"><path d="M0 200 H1200 M0 400 H1200 M0 600 H1200"/><path d="M300 0 V720 M600 0 V720 M900 0 V720"/></g><text x="40" y="44" fill="#F0CB6B" font-size="22" font-weight="800">Retail Tower OS — System Map</text><text x="40" y="68" fill="#8B949E" font-size="12.5">The command tower platform: clients · gateway · packages · system of record · queue · async runtime.</text><g filter="url(#drop)"><rect width="540" height="110" x="40" y="100" fill="url(#zone-gold)" stroke="#C8A24A" stroke-width="1.5" rx="8"/></g><text x="60" y="124" class="zone-label">CLIENTS</text><g filter="url(#drop)"><rect width="180" height="58" x="60" y="138" fill="#1C2128" stroke="#C8A24A" stroke-width="1" rx="6"/><rect width="180" height="58" x="60" y="138" fill="url(#hi)" rx="6"/></g><text x="150" y="162" class="heading" text-anchor="middle">Dashboard clients</text><text x="150" y="180" class="sub" font-style="italic" text-anchor="middle">future feature</text><g filter="url(#drop)"><rect width="180" height="58" x="290" y="138" fill="#1C2128" stroke="#C8A24A" stroke-width="1" rx="6"/><rect width="180" height="58" x="290" y="138" fill="url(#hi)" rx="6"/></g><text x="380" y="162" class="heading" text-anchor="middle">API consumers</text><text x="380" y="180" class="sub" text-anchor="middle">direct API callers</text><g filter="url(#drop)"><rect width="320" height="110" x="640" y="100" fill="url(#zone-gold)" stroke="#C8A24A" stroke-dasharray="6 4" stroke-width="1.5" rx="8"/></g><text x="660" y="124" class="zone-label">POS CLIENTS</text><g filter="url(#drop)"><rect width="280" height="58" x="660" y="138" fill="#1C2128" stroke="#8B949E" stroke-dasharray="4 3" stroke-width="1" rx="6"/><rect width="280" height="58" x="660" y="138" fill="url(#hi)" rx="6"/></g><text x="800" y="162" class="heading" text-anchor="middle">POS applications</text><text x="800" y="180" class="sub" font-style="italic" text-anchor="middle">external repository · authenticated contracts</text><circle cx="920" cy="153" r="3.5" fill="#22D6F6"><animate attributeName="opacity" dur="1.6s" repeatCount="indefinite" values="1;0.3;1"/></circle><path fill="none" stroke="#22D6F6" stroke-width="1.5" marker-end="url(#arrow-cyan)" d="M150 196 V230"/><path fill="none" stroke="#22D6F6" stroke-width="1.5" marker-end="url(#arrow-cyan)" d="M380 196 V230"/><path fill="none" stroke="#8B949E" stroke-dasharray="5 3" stroke-width="1.4" marker-end="url(#arrow-dim)" d="M800 196 C800 215 650 220 540 245"/><text x="680" y="218" class="flow-dim">authenticated contracts</text><g filter="url(#drop)"><rect width="1120" height="150" x="40" y="230" fill="url(#zone-gold)" stroke="#C8A24A" stroke-width="1.7" rx="8"/></g><text x="60" y="254" class="zone-label">COMMAND GATEWAY — apps/api</text><g filter="url(#drop)"><rect width="220" height="98" x="60" y="270" fill="#1C2128" stroke="#C8A24A" stroke-width="1" rx="6"/><rect width="220" height="98" x="60" y="270" fill="url(#hi)" rx="6"/></g><text x="170" y="294" class="heading" text-anchor="middle">apps/api</text><text x="170" y="312" class="sub" text-anchor="middle">NestJS HTTP API</text><text x="170" y="328" class="sub2" text-anchor="middle">auth · context · validation</text><text x="170" y="344" class="sub2" text-anchor="middle">logging · exception envelopes</text><text x="170" y="360" class="sub2" text-anchor="middle">OpenAPI loading · idempotency</text><g filter="url(#drop)"><rect width="200" height="46" x="310" y="270" fill="#1C2128" stroke="#C8A24A" stroke-width="1" rx="5"/><rect width="200" height="46" x="310" y="270" fill="url(#hi)" rx="5"/></g><text x="410" y="290" class="heading" text-anchor="middle">packages/contracts</text><text x="410" y="305" class="sub" text-anchor="middle">OpenAPI 3.1 source</text><g filter="url(#drop)"><rect width="200" height="46" x="540" y="270" fill="#1C2128" stroke="#C8A24A" stroke-width="1" rx="5"/><rect width="200" height="46" x="540" y="270" fill="url(#hi)" rx="5"/></g><text x="640" y="290" class="heading" text-anchor="middle">packages/auth</text><text x="640" y="305" class="sub" text-anchor="middle">argon2id · opaque tokens</text><g filter="url(#drop)"><rect width="200" height="46" x="310" y="324" fill="#1C2128" stroke="#C8A24A" stroke-width="1" rx="5"/><rect width="200" height="46" x="310" y="324" fill="url(#hi)" rx="5"/></g><text x="410" y="344" class="heading" text-anchor="middle">packages/db</text><text x="410" y="359" class="sub" text-anchor="middle">Drizzle schema · explicit migrations</text><g filter="url(#drop)"><rect width="200" height="46" x="540" y="324" fill="#1C2128" stroke="#C8A24A" stroke-width="1" rx="5"/><rect width="200" height="46" x="540" y="324" fill="url(#hi)" rx="5"/></g><text x="640" y="344" class="heading" text-anchor="middle">packages/shared</text><text x="640" y="359" class="sub" text-anchor="middle">errors · logs · ids · queues</text><g filter="url(#drop)"><rect width="170" height="46" x="780" y="270" fill="#1C2128" stroke="#22D6F6" stroke-width="1" rx="5"/><rect width="170" height="46" x="780" y="270" fill="url(#hi)" rx="5"/></g><text x="865" y="290" class="heading" text-anchor="middle">pino + OTel</text><text x="865" y="305" class="sub" text-anchor="middle">request-id · tracing</text><g filter="url(#drop)"><rect width="170" height="46" x="780" y="324" fill="#1C2128" stroke="#22D6F6" stroke-width="1" rx="5"/><rect width="170" height="46" x="780" y="324" fill="url(#hi)" rx="5"/></g><text x="865" y="344" class="heading" text-anchor="middle">Prometheus :9464</text><text x="865" y="359" class="sub" text-anchor="middle">live signal catalogue</text><g filter="url(#drop)"><rect width="170" height="100" x="980" y="270" fill="#1C2128" stroke="#C8A24A" stroke-width="1" rx="5"/><rect width="170" height="100" x="980" y="270" fill="url(#hi)" rx="5"/></g><text x="1065" y="294" class="heading" text-anchor="middle">outbox + idempotency</text><text x="1065" y="312" class="sub" text-anchor="middle">guaranteed delivery</text><text x="1065" y="328" class="sub" text-anchor="middle">replay-safe writes</text><text x="1065" y="354" class="sub2" text-anchor="middle">drainer · DLQ · retries</text><g fill="none" stroke="#C8A24A" stroke-width="1" marker-end="url(#arrow-gold)" opacity=".9"><path d="M280 293 H310"/><path d="M280 305 L310 345"/><path d="M510 293 H540"/><path d="M510 345 H540"/><path d="M740 293 H780"/><path d="M740 345 H780"/><path d="M950 293 H980"/></g><g filter="url(#drop)"><rect width="320" height="130" x="40" y="450" fill="url(#zone-gold)" stroke="#C8A24A" stroke-width="1.5" rx="8"/></g><text x="60" y="474" class="zone-label">SYSTEM OF RECORD</text><g filter="url(#drop)"><ellipse cx="200" cy="540" fill="#1C2128" stroke="#C8A24A" stroke-width="1" rx="100" ry="14"/><rect width="200" height="40" x="100" y="500" fill="#1C2128" stroke="none"/><path stroke="#C8A24A" stroke-width="1" d="M100 500 V540"/><path stroke="#C8A24A" stroke-width="1" d="M300 500 V540"/><ellipse cx="200" cy="500" fill="url(#gold)" rx="100" ry="14"/><ellipse cx="200" cy="500" fill="url(#hi)" rx="100" ry="14"/></g><text x="200" y="503" fill="#0B0F18" font-size="12" font-weight="700" text-anchor="middle">PostgreSQL 16</text><text x="200" y="528" class="sub" text-anchor="middle">system of record · RLS</text><text x="200" y="544" class="sub2" font-style="italic" text-anchor="middle">durable domain truth</text><text x="200" y="562" class="sub2" text-anchor="middle">tenantId NOT NULL · RLS-enforced</text><g filter="url(#drop)"><rect width="320" height="130" x="390" y="450" fill="url(#zone-gold)" stroke="#C8A24A" stroke-width="1.5" rx="8"/></g><text x="410" y="474" class="zone-label">QUEUE COORDINATION</text><g filter="url(#drop)"><ellipse cx="550" cy="540" fill="#1C2128" stroke="#C8A24A" stroke-width="1" rx="90" ry="12"/><rect width="180" height="36" x="460" y="504" fill="#1C2128" stroke="none"/><path stroke="#C8A24A" stroke-width="1" d="M460 504 V540"/><path stroke="#C8A24A" stroke-width="1" d="M640 504 V540"/><ellipse cx="550" cy="504" fill="url(#cyan)" rx="90" ry="12"/><ellipse cx="550" cy="504" fill="url(#hi)" rx="90" ry="12"/></g><text x="550" y="507" fill="#0B0F18" font-size="12" font-weight="700" text-anchor="middle">Redis 7 · BullMQ</text><text x="550" y="528" class="sub" text-anchor="middle">runtime coordination only</text><text x="550" y="544" class="sub2" font-style="italic" text-anchor="middle">not durable domain truth</text><text x="550" y="562" class="sub2" text-anchor="middle">job payload carries tenantId</text><g filter="url(#drop)"><rect width="420" height="130" x="740" y="450" fill="url(#zone-gold)" stroke="#C8A24A" stroke-width="1.5" rx="8"/></g><text x="760" y="474" class="zone-label">ASYNC RUNTIME</text><g filter="url(#drop)"><rect width="380" height="76" x="760" y="490" fill="#1C2128" stroke="#C8A24A" stroke-width="1" rx="6"/><rect width="380" height="76" x="760" y="490" fill="url(#hi)" rx="6"/></g><text x="950" y="514" class="heading" text-anchor="middle">apps/worker</text><text x="950" y="532" class="sub" text-anchor="middle">NestJS standalone · BullMQ consumer</text><text x="950" y="548" class="sub2" text-anchor="middle">tenantId in every job payload</text><text x="950" y="562" class="sub2" text-anchor="middle">Prometheus 127.0.0.1:9091</text><path fill="none" stroke="#22D6F6" stroke-width="1.6" marker-end="url(#arrow-cyan)" d="M170 368 V450"/><text x="178" y="416" class="flow-label">tenant-scoped reads/writes</text><path fill="none" stroke="#22D6F6" stroke-dasharray="6 4" stroke-width="1.6" marker-end="url(#arrow-cyan)" d="M280 370 L460 490"/><text x="316" y="448" class="flow-label">enqueue jobs</text><path fill="none" stroke="#22D6F6" stroke-width="1.6" marker-end="url(#arrow-cyan)" d="M640 504 H760"/><text x="685" y="498" class="flow-label" text-anchor="middle">consume</text><path fill="none" stroke="#C8A24A" stroke-dasharray="4 3" stroke-width="1" marker-end="url(#arrow-gold)" d="M950 490 L740 380"/><text x="820" y="430" fill="#C8A24A" class="flow-dim">uses shared</text><g><circle r="4.5" fill="#22D6F6" filter="url(#glow)"><animateMotion dur="3s" repeatCount="indefinite"><mpath href="#m1"/></animateMotion><animate attributeName="opacity" dur="3s" repeatCount="indefinite" values="0;1;1;0"/></circle><circle r="4.5" fill="#22D6F6" filter="url(#glow)"><animateMotion begin="1.5s" dur="3s" repeatCount="indefinite"><mpath href="#m2"/></animateMotion><animate attributeName="opacity" begin="1.5s" dur="3s" repeatCount="indefinite" values="0;1;1;0"/></circle><circle r="4.5" fill="#8B949E" filter="url(#glow)"><animateMotion dur="4s" repeatCount="indefinite"><mpath href="#m3"/></animateMotion><animate attributeName="opacity" dur="4s" repeatCount="indefinite" values="0;0.9;0.9;0"/></circle><circle r="5" fill="#22D6F6" filter="url(#glow)"><animateMotion dur="3.4s" repeatCount="indefinite"><mpath href="#m4"/></animateMotion><animate attributeName="opacity" dur="3.4s" repeatCount="indefinite" values="0;1;1;0"/></circle><circle r="5" fill="#22D6F6" filter="url(#glow)"><animateMotion begin="1.7s" dur="3.4s" repeatCount="indefinite"><mpath href="#m5"/></animateMotion><animate attributeName="opacity" begin="1.7s" dur="3.4s" repeatCount="indefinite" values="0;1;1;0"/></circle><circle r="5" fill="#22D6F6" filter="url(#glow)"><animateMotion dur="2.8s" repeatCount="indefinite"><mpath href="#m6"/></animateMotion><animate attributeName="opacity" dur="2.8s" repeatCount="indefinite" values="0;1;1;0"/></circle><circle r="4" fill="#C8A24A" filter="url(#glow)"><animateMotion begin="2s" dur="3.6s" repeatCount="indefinite"><mpath href="#m7"/></animateMotion><animate attributeName="opacity" begin="2s" dur="3.6s" repeatCount="indefinite" values="0;0.9;0.9;0"/></circle></g><circle cx="200" cy="500" r="50" fill="none" stroke="#C8A24A" stroke-width=".8" opacity="0"><animate attributeName="r" dur="4.4s" repeatCount="indefinite" values="20;110;20"/><animate attributeName="opacity" dur="4.4s" repeatCount="indefinite" values="0.45;0;0.45"/></circle><circle cx="550" cy="504" r="40" fill="none" stroke="#22D6F6" stroke-width=".8" opacity="0"><animate attributeName="r" begin="2.2s" dur="4.4s" repeatCount="indefinite" values="20;100;20"/><animate attributeName="opacity" begin="2.2s" dur="4.4s" repeatCount="indefinite" values="0.45;0;0.45"/></circle><g transform="translate(40 620)"><rect width="1120" height="80" fill="#0F1620" stroke="#30363D" stroke-width="1" rx="8"/><text x="20" y="22" fill="#8B949E" font-size="10" font-weight="700" letter-spacing="1.2">LEGEND</text><line x1="20" x2="60" y1="42" y2="42" stroke="#22D6F6" stroke-width="1.6" marker-end="url(#arrow-cyan)"/><text x="68" y="46" fill="#E6EDF3" font-size="10.5">Data / request flow</text><line x1="220" x2="260" y1="42" y2="42" stroke="#C8A24A" stroke-width="1.4" marker-end="url(#arrow-gold)"/><text x="268" y="46" fill="#E6EDF3" font-size="10.5">Package dependency</text><line x1="420" x2="460" y1="42" y2="42" stroke="#8B949E" stroke-dasharray="5 3" stroke-width="1.4" marker-end="url(#arrow-dim)"/><text x="468" y="46" fill="#E6EDF3" font-size="10.5">External / authenticated contract</text><circle cx="700" cy="42" r="4" fill="#22D6F6" filter="url(#glow)"/><text x="712" y="46" fill="#E6EDF3" font-size="10.5">Live data token</text><text x="20" y="66" fill="#8B949E" font-size="9.5">POS applications live in an external repository and integrate exclusively through authenticated OpenAPI contracts. Dashboard clients are a future feature.</text></g></svg>