<svg xmlns="http://www.w3.org/2000/svg" width="1280" height="780" aria-labelledby="title desc" role="img" viewBox="0 0 1280 780"><title id="title">Retail Tower OS · platform structure &amp; request flow</title><desc id="desc">Animated structure diagram showing dashboard and POS clients travelling through the NestJS API, guard chain (auth → tenant → roles), service layer with RLS-enforced PostgreSQL, BullMQ outbox into Redis, and the worker app. Side rails surface contracts, shared packages, and observability.</desc><defs><linearGradient id="bg" x1="0" x2="1" y1="0" y2="1"><stop offset="0" stop-color="#020617"/><stop offset=".55" stop-color="#0b1325"/><stop offset="1" stop-color="#020617"/></linearGradient><radialGradient id="bg-glow" cx=".55" cy=".45" r=".6"><stop offset="0" stop-color="#0f766e" stop-opacity=".35"/><stop offset="1" stop-color="#020617" stop-opacity="0"/></radialGradient><linearGradient id="rail" x1="0" x2="0" y1="0" y2="1"><stop offset="0" stop-color="#1e293b" stop-opacity=".5"/><stop offset="1" stop-color="#1e293b" stop-opacity=".2"/></linearGradient><linearGradient id="n-teal" x1="0" x2="1" y1="0" y2="1"><stop offset="0" stop-color="#5eead4"/><stop offset=".55" stop-color="#0d9488"/><stop offset="1" stop-color="#134e4a"/></linearGradient><linearGradient id="n-blue" x1="0" x2="1" y1="0" y2="1"><stop offset="0" stop-color="#60a5fa"/><stop offset=".55" stop-color="#2563eb"/><stop offset="1" stop-color="#1e3a8a"/></linearGradient><linearGradient id="n-violet" x1="0" x2="1" y1="0" y2="1"><stop offset="0" stop-color="#c4b5fd"/><stop offset=".55" stop-color="#7c3aed"/><stop offset="1" stop-color="#4c1d95"/></linearGradient><linearGradient id="n-amber" x1="0" x2="1" y1="0" y2="1"><stop offset="0" stop-color="#fcd34d"/><stop offset=".55" stop-color="#d97706"/><stop offset="1" stop-color="#7c2d12"/></linearGradient><linearGradient id="n-rose" x1="0" x2="1" y1="0" y2="1"><stop offset="0" stop-color="#fda4af"/><stop offset=".55" stop-color="#e11d48"/><stop offset="1" stop-color="#881337"/></linearGradient><linearGradient id="n-emerald" x1="0" x2="1" y1="0" y2="1"><stop offset="0" stop-color="#86efac"/><stop offset=".55" stop-color="#16a34a"/><stop offset="1" stop-color="#14532d"/></linearGradient><linearGradient id="n-slate" x1="0" x2="1" y1="0" y2="1"><stop offset="0" stop-color="#cbd5e1"/><stop offset=".55" stop-color="#475569"/><stop offset="1" stop-color="#1e293b"/></linearGradient><linearGradient id="gloss" x1="0" x2="0" y1="0" y2="1"><stop offset="0" stop-color="#fff" stop-opacity=".55"/><stop offset=".4" stop-color="#fff" stop-opacity="0"/></linearGradient><filter id="lift" width="140%" height="160%" x="-20%" y="-20%"><feDropShadow dx="0" dy="6" flood-color="#000" flood-opacity=".55" stdDeviation="7"/></filter><filter id="glow" width="200%" height="200%" x="-50%" y="-50%"><feGaussianBlur result="blur" stdDeviation="3"/><feMerge><feMergeNode in="blur"/><feMergeNode in="SourceGraphic"/></feMerge></filter><symbol id="node" overflow="visible"><rect width="220" height="88" x="-110" y="-44" fill="#0f172a" filter="url(#lift)" opacity=".92" rx="18"/><rect width="220" height="88" x="-110" y="-44" fill="url(#gloss)" opacity=".35" rx="18"/><rect width="220" height="88" x="-110" y="-44" fill="none" stroke="#1e293b" stroke-width="1" rx="18"/></symbol><symbol id="guard" overflow="visible"><rect width="144" height="48" x="-72" y="-24" fill="#0f172a" filter="url(#lift)" opacity=".92" rx="10"/><rect width="144" height="48" x="-72" y="-24" fill="url(#gloss)" opacity=".35" rx="10"/><rect width="144" height="48" x="-72" y="-24" fill="none" stroke="#1e293b" rx="10"/></symbol><marker id="arrow" markerHeight="8" markerWidth="8" orient="auto-start-reverse" refX="9" refY="5" viewBox="0 0 10 10"><path fill="#94a3b8" d="M0 0 L10 5 L0 10 z"/></marker></defs><rect width="1280" height="780" fill="url(#bg)"/><rect width="1280" height="780" fill="url(#bg-glow)"/><g fill="#e2e8f0" font-family="Inter, ui-sans-serif, system-ui, -apple-system, 'Segoe UI', sans-serif"><text x="40" y="56" fill="#f8fafc" font-size="26" font-weight="800">Retail Tower OS · structure &amp; request flow</text><text x="40" y="84" fill="#94a3b8" font-size="14">Clients ➜ API ingress ➜ guard chain ➜ service layer + RLS ➜ PostgreSQL · outbox ➜ Redis ➜ worker — governed by contracts, shared, and observability.</text><g opacity=".95"><rect width="190" height="600" x="40" y="120" fill="url(#rail)" rx="22"/><rect width="190" height="600" x="40" y="120" fill="none" stroke="#1e293b" rx="22"/><text x="135" y="148" fill="#cbd5e1" font-size="13" font-weight="700" text-anchor="middle">CONTRACTS · GOVERNANCE</text><text x="135" y="166" fill="#64748b" font-size="11" text-anchor="middle">.specify / packages/contracts</text><g fill="#cbd5e1" font-size="12" text-anchor="middle"><text x="135" y="220">OpenAPI 3.1 of record</text><text x="135" y="242" fill="#94a3b8" font-size="11">packages/contracts/openapi</text><text x="135" y="288">Zod runtime validation</text><text x="135" y="310" fill="#94a3b8" font-size="11">packages/contracts/src</text><text x="135" y="358">Constitution v3.0.0</text><text x="135" y="380" fill="#94a3b8" font-size="11">14 core principles</text><text x="135" y="430">Agent OS · Maestro</text><text x="135" y="452" fill="#94a3b8" font-size="11">slice-governed flow</text><text x="135" y="500">specs/001 ▸ 010</text><text x="135" y="522" fill="#94a3b8" font-size="11">auth → inventory ledger</text><text x="135" y="580">Hard rules</text><text x="135" y="600" fill="#94a3b8" font-size="11">RLS · contract-first</text><text x="135" y="618" fill="#94a3b8" font-size="11">audit · provenance</text><text x="135" y="636" fill="#94a3b8" font-size="11">PII discipline</text></g></g><g opacity=".95"><rect width="190" height="600" x="1050" y="120" fill="url(#rail)" rx="22"/><rect width="190" height="600" x="1050" y="120" fill="none" stroke="#1e293b" rx="22"/><text x="1145" y="148" fill="#cbd5e1" font-size="13" font-weight="700" text-anchor="middle">OBSERVABILITY · OPS</text><text x="1145" y="166" fill="#64748b" font-size="11" text-anchor="middle">pino · OTEL · Prometheus</text><g fill="#cbd5e1" font-size="12" text-anchor="middle"><text x="1145" y="220">structured logs</text><text x="1145" y="242" fill="#94a3b8" font-size="11">request_id correlation</text><text x="1145" y="288">OpenTelemetry</text><text x="1145" y="310" fill="#94a3b8" font-size="11">HTTP · PG · Redis spans</text><text x="1145" y="358">Prometheus exporter</text><text x="1145" y="380" fill="#94a3b8" font-size="11">api :9464 · worker :9091</text><text x="1145" y="430">Audit pipeline</text><text x="1145" y="452" fill="#94a3b8" font-size="11">actor · tenant · op · outcome</text><text x="1145" y="500">Idempotency</text><text x="1145" y="522" fill="#94a3b8" font-size="11">interceptor + replay</text><text x="1145" y="580">Test infra</text><text x="1145" y="600" fill="#94a3b8" font-size="11">jest · testcontainers</text><text x="1145" y="618" fill="#94a3b8" font-size="11">k6 perf · supertest</text></g></g><g transform="translate(420 175)"><use href="#node"/><rect width="36" height="44" x="-90" y="-22" fill="url(#n-blue)" rx="6"/><rect width="28" height="22" x="-86" y="-18" fill="#dbeafe" rx="2"/><text x="-30" y="-8" fill="#fafafa" font-size="14" font-weight="800">Dashboard clients</text><text x="-30" y="10" fill="#94a3b8" font-size="11">httpOnly cookies</text><text x="-30" y="26" fill="#64748b" font-size="10">future admin UI</text></g><g transform="translate(860 175)"><use href="#node"/><rect width="36" height="40" x="-90" y="-20" fill="url(#n-amber)" rx="6"/><rect width="28" height="22" x="-86" y="-12" fill="#fef3c7" rx="2"/><rect width="12" height="10" x="-78" y="-2" fill="#fed7aa" rx="1"/><text x="-30" y="-8" fill="#fafafa" font-size="14" font-weight="800">POS clients</text><text x="-30" y="10" fill="#94a3b8" font-size="11">bearer tokens</text><text x="-30" y="26" fill="#64748b" font-size="10">separate repo</text></g><g transform="translate(640 295)"><rect width="360" height="88" x="-180" y="-44" fill="#0f172a" filter="url(#lift)" opacity=".95" rx="18"/><rect width="360" height="88" x="-180" y="-44" fill="url(#gloss)" opacity=".32" rx="18"/><rect width="360" height="88" x="-180" y="-44" fill="none" stroke="#0d9488" stroke-width="1.2" rx="18"/><rect width="44" height="44" x="-160" y="-22" fill="url(#n-teal)" rx="8"/><path fill="none" stroke="#ccfbf1" stroke-linecap="round" stroke-width="3" d="M-148 -8 a8 8 0 1 1 0.1 0 M-148 0 v6"/><text x="-95" y="-8" fill="#fafafa" font-size="16" font-weight="800">apps/api · NestJS 11</text><text x="-95" y="12" fill="#94a3b8" font-size="11">helmet · cookies · request-id · Zod validation · OpenAPI loader</text><text x="-95" y="28" fill="#64748b" font-size="10">Express platform · sync HTTP boundary</text></g><g><text x="-280" y="-32" fill="#64748b" font-size="11" font-weight="700" transform="translate(640 420)">GUARD CHAIN</text><g transform="translate(640 420) translate(-244 0)"><use href="#guard"/><circle cx="-46" cy="0" r="14" fill="url(#n-emerald)"/><path fill="none" stroke="#dcfce7" stroke-linecap="round" stroke-linejoin="round" stroke-width="3" d="M-52 0 l4 4 l8 -8"/><text x="-22" y="-2" fill="#fafafa" font-size="11" font-weight="800">AuthGuard</text><text x="-22" y="14" fill="#94a3b8" font-size="9">argon2 · token</text></g><g transform="translate(640 420) translate(-84 0)"><use href="#guard"/><circle cx="-46" cy="0" r="14" fill="url(#n-teal)"/><path stroke="#ccfbf1" stroke-linecap="round" stroke-width="2.5" d="M-52 -4 h12 M-52 0 h12 M-52 4 h12"/><text x="-22" y="-2" fill="#fafafa" font-size="11" font-weight="800">Tenant ctx</text><text x="-22" y="14" fill="#94a3b8" font-size="9">404 cross-tenant</text></g><g transform="translate(640 420) translate(80 0)"><use href="#guard"/><circle cx="-46" cy="0" r="14" fill="url(#n-violet)"/><path fill="none" stroke="#ede9fe" stroke-linecap="round" stroke-width="2.5" d="M-52 -2 l4 4 l8 -8 M-52 6 h12"/><text x="-22" y="-2" fill="#fafafa" font-size="11" font-weight="800">RolesGuard</text><text x="-22" y="14" fill="#94a3b8" font-size="9">default deny</text></g><g transform="translate(640 420) translate(240 0)"><use href="#guard"/><circle cx="-46" cy="0" r="14" fill="url(#n-rose)"/><path stroke="#ffe4e6" stroke-linecap="round" stroke-width="2.5" d="M-50 -4 h8 M-50 0 h8 M-50 4 h8"/><text x="-22" y="-2" fill="#fafafa" font-size="11" font-weight="800">Idempotency</text><text x="-22" y="14" fill="#94a3b8" font-size="9">replay-safe</text></g></g><g transform="translate(640 540)"><rect width="360" height="88" x="-180" y="-44" fill="#0f172a" filter="url(#lift)" opacity=".95" rx="18"/><rect width="360" height="88" x="-180" y="-44" fill="url(#gloss)" opacity=".32" rx="18"/><rect width="360" height="88" x="-180" y="-44" fill="none" stroke="#7c3aed" stroke-width="1.2" rx="18"/><rect width="44" height="44" x="-160" y="-22" fill="url(#n-violet)" rx="8"/><path stroke="#ede9fe" stroke-linecap="round" stroke-width="3" d="M-148 -10 v20 M-158 0 h20"/><text x="-95" y="-8" fill="#fafafa" font-size="16" font-weight="800">Service layer · domain modules</text><text x="-95" y="12" fill="#94a3b8" font-size="11">auth · tenants · catalog · sales · inventory · audit · outbox</text><text x="-95" y="28" fill="#64748b" font-size="10">tenant-scoped Drizzle · RLS at the database boundary</text></g><g transform="translate(380 660)"><use href="#node"/><ellipse cx="-72" cy="-12" fill="url(#n-emerald)" rx="22" ry="8"/><path fill="url(#n-emerald)" d="M-94 -12 v22 c0 5 10 9 22 9s22-4 22-9 v-22"/><path fill="url(#gloss)" d="M-94 -12 v22 c0 5 10 9 22 9s22-4 22-9 v-22" opacity=".4"/><path fill="none" stroke="#bbf7d0" stroke-width="1.5" d="M-94 0 c0 5 10 9 22 9s22-4 22-9" opacity=".8"/><text x="-30" y="-8" fill="#fafafa" font-size="14" font-weight="800">PostgreSQL 16</text><text x="-30" y="10" fill="#94a3b8" font-size="11">system of record · RLS</text><text x="-30" y="26" fill="#64748b" font-size="10">Drizzle · SQL migrations</text></g><g transform="translate(640 660)"><use href="#node"/><ellipse cx="-72" cy="-10" fill="url(#n-rose)" rx="22" ry="7"/><path fill="url(#n-rose)" d="M-94 -10 v8 c0 4 10 8 22 8s22-4 22-8 v-8 M-94 0 v8 c0 4 10 8 22 8s22-4 22-8 v-8 M-94 10 v8 c0 4 10 8 22 8s22-4 22-8 v-8"/><path fill="url(#gloss)" d="M-94 -10 v8 c0 4 10 8 22 8s22-4 22-8 v-8" opacity=".4"/><text x="-30" y="-8" fill="#fafafa" font-size="14" font-weight="800">Redis 7 · BullMQ</text><text x="-30" y="10" fill="#94a3b8" font-size="11">queues + coordination</text><text x="-30" y="26" fill="#64748b" font-size="10">disposable state</text></g><g transform="translate(900 660)"><use href="#node"/><rect width="44" height="44" x="-92" y="-22" fill="url(#n-blue)" rx="8"/><circle cx="-70" cy="0" r="9" fill="none" stroke="#dbeafe" stroke-width="3"/><circle cx="-70" cy="0" r="3" fill="#dbeafe"/><path stroke="#dbeafe" stroke-linecap="round" stroke-width="2.5" d="M-70 -16 v4 M-70 12 v4 M-86 0 h4 M-58 0 h4"/><text x="-30" y="-8" fill="#fafafa" font-size="14" font-weight="800">apps/worker</text><text x="-30" y="10" fill="#94a3b8" font-size="11">BullMQ · NestJS</text><text x="-30" y="26" fill="#64748b" font-size="10">outbox drainer · async fanout</text></g><g fill="none" stroke="#475569" stroke-width="1.5"><path marker-end="url(#arrow)" d="M420 219 Q420 257 480 280"/><path stroke-dasharray="4 4" marker-end="url(#arrow)" d="M860 219 Q860 257 800 280"/><path id="api-to-guards" marker-end="url(#arrow)" d="M640 339 L640 396"/><path id="guards-to-svc" marker-end="url(#arrow)" d="M640 444 L640 496"/><path id="svc-to-pg" marker-end="url(#arrow)" d="M540 568 Q460 600 400 616"/><path id="svc-to-redis" marker-end="url(#arrow)" d="M640 584 L640 616"/><path id="redis-to-worker" marker-end="url(#arrow)" d="M740 660 L820 660"/><path stroke-dasharray="4 4" marker-end="url(#arrow)" d="M880 690 Q700 720 480 690"/></g><g fill="#94a3b8" font-size="10"><text x="332" y="262">cookie auth</text><text x="804" y="262">bearer auth</text><text x="652" y="376">authenticated</text><text x="652" y="488">RLS bound ctx</text><text x="430" y="592">tenant query</text><text x="652" y="608">outbox enqueue</text><text x="752" y="650">consume</text><text x="600" y="708">backfill / read facts</text></g><circle r="6" fill="#60a5fa" filter="url(#glow)"><animateMotion dur="6s" repeatCount="indefinite"><mpath href="#flow-dashboard"/></animateMotion><animate attributeName="r" dur="1.4s" repeatCount="indefinite" values="6;8;6"/></circle><circle r="5" fill="#34d399" filter="url(#glow)"><animateMotion begin="1.5s" dur="6s" repeatCount="indefinite"><mpath href="#flow-dashboard"/></animateMotion></circle><circle r="5" fill="#a78bfa" filter="url(#glow)"><animateMotion begin="3s" dur="6s" repeatCount="indefinite"><mpath href="#flow-dashboard"/></animateMotion></circle><path id="flow-dashboard" fill="none" stroke="none" d="M420 145 Q420 250 480 280 L640 280 L640 339 L640 396 L640 444 L640 496 L640 540 Q540 580 400 632"/><circle r="5" fill="#fbbf24" filter="url(#glow)"><animateMotion begin="0.7s" dur="6s" repeatCount="indefinite"><mpath href="#flow-pos"/></animateMotion></circle><circle r="4" fill="#fcd34d" filter="url(#glow)"><animateMotion begin="2.5s" dur="6s" repeatCount="indefinite"><mpath href="#flow-pos"/></animateMotion></circle><path id="flow-pos" fill="none" stroke="none" d="M860 145 Q860 250 800 280 L640 280 L640 396 L640 540 Q700 580 640 616"/><circle r="5" fill="#fb7185" filter="url(#glow)"><animateMotion begin="0.4s" dur="3.6s" repeatCount="indefinite"><mpath href="#flow-outbox"/></animateMotion><animate attributeName="opacity" dur="3.6s" repeatCount="indefinite" values="0;1;1;0"/></circle><circle r="4" fill="#fda4af" filter="url(#glow)"><animateMotion begin="2s" dur="3.6s" repeatCount="indefinite"><mpath href="#flow-outbox"/></animateMotion><animate attributeName="opacity" dur="3.6s" repeatCount="indefinite" values="0;1;1;0"/></circle><path id="flow-outbox" fill="none" stroke="none" d="M640 584 L640 632 L740 660 L820 660"/><circle r="4" fill="#86efac" filter="url(#glow)"><animateMotion dur="4s" repeatCount="indefinite"><mpath href="#flow-backfill"/></animateMotion><animate attributeName="opacity" dur="4s" repeatCount="indefinite" values="0;1;1;0"/></circle><path id="flow-backfill" fill="none" stroke="none" d="M880 690 Q700 720 480 690"/><g><line x1="540" x2="230" y1="295" y2="295" stroke="#334155" stroke-dasharray="3 4" stroke-width="1.2"/><circle r="4" fill="#a5b4fc" filter="url(#glow)"><animate attributeName="opacity" dur="3s" repeatCount="indefinite" values="0;1;0"/><animateMotion dur="3s" repeatCount="indefinite"><mpath href="#tap-gov"/></animateMotion></circle><path id="tap-gov" fill="none" stroke="none" d="M540 295 L230 295"/></g><text x="330" y="288" fill="#94a3b8" font-size="10">contract-first · Zod validate</text><g><line x1="740" x2="1050" y1="295" y2="295" stroke="#334155" stroke-dasharray="3 4" stroke-width="1.2"/><circle r="4" fill="#fde68a" filter="url(#glow)"><animate attributeName="opacity" dur="3.2s" repeatCount="indefinite" values="0;1;0"/><animateMotion dur="3.2s" repeatCount="indefinite"><mpath href="#tap-obs"/></animateMotion></circle><path id="tap-obs" fill="none" stroke="none" d="M740 295 L1050 295"/></g><text x="800" y="288" fill="#94a3b8" font-size="10">pino · OTEL span emit</text><g><line x1="740" x2="1050" y1="540" y2="540" stroke="#334155" stroke-dasharray="3 4" stroke-width="1.2"/><circle r="4" fill="#fda4af" filter="url(#glow)"><animate attributeName="opacity" dur="3.4s" repeatCount="indefinite" values="0;1;0"/><animateMotion dur="3.4s" repeatCount="indefinite"><mpath href="#tap-audit"/></animateMotion></circle><path id="tap-audit" fill="none" stroke="none" d="M740 540 L1050 540"/></g><text x="800" y="533" fill="#94a3b8" font-size="10">audit · provenance</text><g font-size="11" transform="translate(40 736)"><rect width="1200" height="32" x="0" y="-14" fill="#0f172a" stroke="#1e293b" opacity=".7" rx="8"/><circle cx="20" cy="2" r="5" fill="#60a5fa"/><text x="32" y="6" fill="#cbd5e1">dashboard request</text><circle cx="170" cy="2" r="5" fill="#fbbf24"/><text x="182" y="6" fill="#cbd5e1">POS request</text><circle cx="290" cy="2" r="5" fill="#a78bfa"/><text x="302" y="6" fill="#cbd5e1">guarded payload</text><circle cx="430" cy="2" r="5" fill="#34d399"/><text x="442" y="6" fill="#cbd5e1">tenant query</text><circle cx="550" cy="2" r="5" fill="#fb7185"/><text x="562" y="6" fill="#cbd5e1">outbox event</text><circle cx="680" cy="2" r="5" fill="#86efac"/><text x="692" y="6" fill="#cbd5e1">worker drain</text><circle cx="800" cy="2" r="5" fill="#a5b4fc"/><text x="812" y="6" fill="#cbd5e1">contracts tap</text><circle cx="920" cy="2" r="5" fill="#fde68a"/><text x="932" y="6" fill="#cbd5e1">observability emit</text><text x="1080" y="6" fill="#64748b">SVG · SMIL animations</text></g></g></svg>