<svg xmlns="http://www.w3.org/2000/svg" width="96" height="96" aria-labelledby="title desc" role="img" viewBox="0 0 96 96"><title id="title">API icon</title><desc id="desc">Three-dimensional hexagonal API gateway with pulsing core.</desc><defs><linearGradient id="api-bg" x1="0" x2="1" y1="0" y2="1"><stop offset="0" stop-color="#eff6ff"/><stop offset="1" stop-color="#bfdbfe"/></linearGradient><linearGradient id="api-outer" x1=".2" x2=".8" y1="0" y2="1"><stop offset="0" stop-color="#60a5fa"/><stop offset=".5" stop-color="#2563eb"/><stop offset="1" stop-color="#1e3a8a"/></linearGradient><linearGradient id="api-inner" x1=".2" x2=".8" y1="0" y2="1"><stop offset="0" stop-color="#22d3ee"/><stop offset=".5" stop-color="#0891b2"/><stop offset="1" stop-color="#155e75"/></linearGradient><linearGradient id="api-hi" x1="0" x2="0" y1="0" y2="1"><stop offset="0" stop-color="#fff" stop-opacity=".55"/><stop offset=".4" stop-color="#fff" stop-opacity="0"/></linearGradient><radialGradient id="api-core" cx=".5" cy=".4" r=".6"><stop offset="0" stop-color="#fff"/><stop offset=".6" stop-color="#bae6fd"/><stop offset="1" stop-color="#2563eb"/></radialGradient><filter id="api-shadow" width="160%" height="140%" x="-30%" y="-10%"><feDropShadow dx="0" dy="3" flood-color="#1e3a8a" flood-opacity=".4" stdDeviation="3"/></filter></defs><rect width="96" height="96" fill="url(#api-bg)" rx="20"/><ellipse cx="48" cy="84" fill="#1e3a8a" opacity=".18" rx="22" ry="3"/><g filter="url(#api-shadow)"><path fill="url(#api-outer)" d="M48 14 78 31v34L48 82 18 65V31z"/><path fill="url(#api-hi)" d="M48 14 78 31v34L48 82 18 65V31z"/><path fill="url(#api-inner)" d="M48 24 68 36v24L48 72 28 60V36z"/><path fill="url(#api-hi)" d="M48 24 68 36v24L48 72 28 60V36z" opacity=".6"/></g><circle cx="48" cy="48" r="6" fill="url(#api-core)"><animate attributeName="r" dur="2.4s" repeatCount="indefinite" values="6;8;6"/><animate attributeName="opacity" dur="2.4s" repeatCount="indefinite" values="1;0.8;1"/></circle><g stroke="#dbeafe" stroke-linecap="round" stroke-width="2.5" opacity=".85"><path d="M48 30v6"/><path d="M48 60v6"/><path d="M30 42l5 3"/><path d="M61 51l5 3"/><path d="M30 54l5-3"/><path d="M61 45l5-3"/></g><text x="48" y="54" fill="#fff" font-family="Arial, sans-serif" font-size="11" font-weight="800" letter-spacing="1" text-anchor="middle">API</text></svg>