<svg xmlns="http://www.w3.org/2000/svg" viewBox="0 0 48 48" width="48" height="48" role="img" aria-labelledby="t d">
  <title id="t">Audit</title>
  <desc id="d">Audit log document with animated verification mark.</desc>
  <defs>
    <linearGradient id="ad-paper" x1="0" y1="0" x2="0" y2="1">
      <stop offset="0" stop-color="#F0CB6B"/>
      <stop offset="0.55" stop-color="#C8A24A"/>
      <stop offset="1" stop-color="#7A5A14"/>
    </linearGradient>
    <linearGradient id="ad-hi" x1="0" y1="0" x2="0" y2="1">
      <stop offset="0" stop-color="#ffffff" stop-opacity="0.45"/>
      <stop offset="0.5" stop-color="#ffffff" stop-opacity="0"/>
    </linearGradient>
    <filter id="ad-sh" x="-20%" y="-20%" width="140%" height="140%">
      <feDropShadow dx="0" dy="1.6" stdDeviation="1.4" flood-color="#0B0F18" flood-opacity="0.7"/>
    </filter>
  </defs>
  <g filter="url(#ad-sh)">
    <path d="M12 6 H30 L38 14 V42 a2 2 0 0 1 -2 2 H12 a2 2 0 0 1 -2 -2 V8 a2 2 0 0 1 2 -2 z" fill="url(#ad-paper)"/>
    <path d="M12 6 H30 L38 14 V42 a2 2 0 0 1 -2 2 H12 a2 2 0 0 1 -2 -2 V8 a2 2 0 0 1 2 -2 z" fill="url(#ad-hi)"/>
    <path d="M30 6 V14 H38" fill="none" stroke="#5A4310" stroke-width="1.4"/>
  </g>
  <g stroke="#0B0F18" stroke-width="1.6" stroke-linecap="round" opacity="0.55">
    <path d="M15 20 H32"/>
    <path d="M15 26 H28"/>
    <path d="M15 32 H24"/>
  </g>
  <circle cx="32" cy="36" r="6" fill="#22D6F6" filter="url(#ad-sh)"/>
  <path d="M28.5 36 L31 38.5 L36 33" fill="none" stroke="#0B0F18" stroke-width="2" stroke-linecap="round" stroke-linejoin="round">
    <animate attributeName="stroke-dasharray" values="0 14;14 0" dur="1.8s" repeatCount="indefinite"/>
  </path>
</svg>
