<svg xmlns="http://www.w3.org/2000/svg" width="48" height="48" aria-labelledby="t d" role="img" viewBox="0 0 48 48"><title id="t">Database</title><desc id="d">PostgreSQL system-of-record cylinder with depth.</desc><defs><linearGradient id="dbi-body" x1="0" x2="1" y1="0" y2="0"><stop offset="0" stop-color="#5A4310"/><stop offset=".5" stop-color="#C8A24A"/><stop offset="1" stop-color="#7A5A14"/></linearGradient><linearGradient id="dbi-top" x1="0" x2="1" y1="0" y2="1"><stop offset="0" stop-color="#F0CB6B"/><stop offset="1" stop-color="#7A5A14"/></linearGradient><linearGradient id="dbi-hi" x1="0" x2="0" y1="0" y2="1"><stop offset="0" stop-color="#fff" stop-opacity=".45"/><stop offset=".4" stop-color="#fff" stop-opacity="0"/></linearGradient><filter id="dbi-sh" width="140%" height="140%" x="-20%" y="-20%"><feDropShadow dx="0" dy="1.6" flood-color="#0B0F18" flood-opacity=".7" stdDeviation="1.4"/></filter></defs><g filter="url(#dbi-sh)"><path fill="url(#dbi-body)" d="M8 14 V36 c0 4 7 7 16 7 s16 -3 16 -7 V14"/><path fill="url(#dbi-hi)" d="M8 14 V36 c0 4 7 7 16 7 s16 -3 16 -7 V14"/><ellipse cx="24" cy="14" fill="url(#dbi-top)" rx="16" ry="6"/><ellipse cx="24" cy="14" fill="none" stroke="#5A4310" stroke-width=".8" rx="16" ry="6"/></g><path fill="none" stroke="#A8F4FB" stroke-width="1" d="M8 23 c0 4 7 7 16 7 s16 -3 16 -7" opacity=".7"/><path fill="none" stroke="#A8F4FB" stroke-width="1" d="M8 32 c0 4 7 7 16 7 s16 -3 16 -7" opacity=".7"/><g><circle cx="20" cy="10" r="1.4" fill="#22D6F6"><animate attributeName="cy" dur="2.8s" repeatCount="indefinite" values="10;18;10"/><animate attributeName="opacity" dur="2.8s" repeatCount="indefinite" values="0;1;0"/></circle><circle cx="30" cy="10" r="1.4" fill="#22D6F6"><animate attributeName="cy" begin="0.9s" dur="2.8s" repeatCount="indefinite" values="10;18;10"/><animate attributeName="opacity" begin="0.9s" dur="2.8s" repeatCount="indefinite" values="0;1;0"/></circle></g></svg>