<svg xmlns="http://www.w3.org/2000/svg" width="96" height="96" aria-labelledby="title desc" role="img" viewBox="0 0 96 96"><title id="title">Queues icon</title><desc id="desc">Three-dimensional BullMQ queue stack with animated tokens flowing through.</desc><defs><linearGradient id="q-bg" x1="0" x2="1" y1="0" y2="1"><stop offset="0" stop-color="#f8fafc"/><stop offset="1" stop-color="#cbd5e1"/></linearGradient><linearGradient id="q-a" x1="0" x2="1" y1="0" y2="0"><stop offset="0" stop-color="#1e293b"/><stop offset=".5" stop-color="#475569"/><stop offset="1" stop-color="#1e293b"/></linearGradient><linearGradient id="q-b" x1="0" x2="1" y1="0" y2="0"><stop offset="0" stop-color="#1d4ed8"/><stop offset=".5" stop-color="#3b82f6"/><stop offset="1" stop-color="#1e3a8a"/></linearGradient><linearGradient id="q-c" x1="0" x2="1" y1="0" y2="0"><stop offset="0" stop-color="#0f766e"/><stop offset=".5" stop-color="#0d9488"/><stop offset="1" stop-color="#134e4a"/></linearGradient><linearGradient id="q-hi" x1="0" x2="0" y1="0" y2="1"><stop offset="0" stop-color="#fff" stop-opacity=".5"/><stop offset=".5" stop-color="#fff" stop-opacity="0"/></linearGradient><filter id="q-shadow" width="140%" height="160%" x="-20%" y="-20%"><feDropShadow dx="0" dy="3" flood-color="#1e293b" flood-opacity=".45" stdDeviation="3"/></filter></defs><rect width="96" height="96" fill="url(#q-bg)" rx="20"/><ellipse cx="48" cy="84" fill="#1e293b" opacity=".22" rx="24" ry="3"/><g filter="url(#q-shadow)"><rect width="44" height="14" x="20" y="22" fill="url(#q-a)" rx="7"/><rect width="44" height="14" x="20" y="22" fill="url(#q-hi)" opacity=".55" rx="7"/><rect width="44" height="14" x="32" y="44" fill="url(#q-b)" rx="7"/><rect width="44" height="14" x="32" y="44" fill="url(#q-hi)" opacity=".55" rx="7"/><rect width="44" height="14" x="20" y="66" fill="url(#q-c)" rx="7"/><rect width="44" height="14" x="20" y="66" fill="url(#q-hi)" opacity=".55" rx="7"/></g><g fill="none" stroke="#64748b" stroke-linecap="round" stroke-width="3" opacity=".85"><path d="M70 29h6v22h-6"/><path d="M26 51h-4v22h4"/></g><g><circle cx="76" cy="29" r="2.6" fill="#60a5fa"><animate attributeName="opacity" dur="2.4s" repeatCount="indefinite" values="0;1;1;0"/><animate attributeName="cy" dur="2.4s" keyTimes="0;0.5;1" repeatCount="indefinite" values="29;51;51"/></circle><circle cx="22" cy="51" r="2.6" fill="#5eead4"><animate attributeName="opacity" begin="0.8s" dur="2.4s" repeatCount="indefinite" values="0;1;1;0"/><animate attributeName="cy" begin="0.8s" dur="2.4s" keyTimes="0;0.5;1" repeatCount="indefinite" values="51;73;73"/></circle></g></svg>