<svg xmlns="http://www.w3.org/2000/svg" width="96" height="96" aria-labelledby="title desc" role="img" viewBox="0 0 96 96"><title id="title">Security icon</title><desc id="desc">Three-dimensional shield representing the platform default-deny security posture.</desc><defs><linearGradient id="sec-bg" x1="0" x2="1" y1="0" y2="1"><stop offset="0" stop-color="#eff6ff"/><stop offset="1" stop-color="#bfdbfe"/></linearGradient><linearGradient id="sec-shield" x1=".2" x2=".8" y1="0" y2="1"><stop offset="0" stop-color="#60a5fa"/><stop offset=".5" stop-color="#1d4ed8"/><stop offset="1" stop-color="#1e3a8a"/></linearGradient><linearGradient id="sec-hi" x1="0" x2="0" y1="0" y2="1"><stop offset="0" stop-color="#fff" stop-opacity=".55"/><stop offset=".4" stop-color="#fff" stop-opacity="0"/></linearGradient><radialGradient id="sec-core" cx=".5" cy=".4" r=".6"><stop offset="0" stop-color="#fff"/><stop offset=".5" stop-color="#dbeafe"/><stop offset="1" stop-color="#3b82f6"/></radialGradient><filter id="sec-shadow" width="160%" height="140%" x="-30%" y="-10%"><feDropShadow dx="0" dy="3" flood-color="#1e3a8a" flood-opacity=".4" stdDeviation="3"/></filter></defs><rect width="96" height="96" fill="url(#sec-bg)" rx="20"/><ellipse cx="48" cy="84" fill="#1e3a8a" opacity=".18" rx="22" ry="3"/><g filter="url(#sec-shadow)"><path fill="url(#sec-shield)" d="M48 12 76 22v22c0 19-11 32-28 41-17-9-28-22-28-41V22z"/><path fill="url(#sec-hi)" d="M48 12 76 22v22c0 19-11 32-28 41-17-9-28-22-28-41V22z"/></g><circle cx="48" cy="48" r="14" fill="none" stroke="#bfdbfe" stroke-width="2" opacity=".85"/><circle cx="48" cy="48" r="6" fill="url(#sec-core)"><animate attributeName="r" dur="2.4s" repeatCount="indefinite" values="6;7.5;6"/></circle><path fill="none" stroke="#dbeafe" stroke-linecap="round" stroke-linejoin="round" stroke-width="5" d="m36 49 8 8 18-22"/></svg>