<svg xmlns="http://www.w3.org/2000/svg" width="48" height="48" aria-labelledby="t d" role="img" viewBox="0 0 48 48"><title id="t">Worker</title><desc id="d">Background worker gear rotating around an active core.</desc><defs><radialGradient id="wk-gear" cx=".4" cy=".35" r=".7"><stop offset="0" stop-color="#F0CB6B"/><stop offset=".5" stop-color="#C8A24A"/><stop offset="1" stop-color="#5A4310"/></radialGradient><radialGradient id="wk-core" cx=".4" cy=".35" r=".7"><stop offset="0" stop-color="#A8F4FB"/><stop offset=".6" stop-color="#22D6F6"/><stop offset="1" stop-color="#0E7A93"/></radialGradient><filter id="wk-sh" width="140%" height="140%" x="-20%" y="-20%"><feDropShadow dx="0" dy="1.6" flood-color="#0B0F18" flood-opacity=".7" stdDeviation="1.4"/></filter></defs><g filter="url(#wk-sh)"><g transform-origin="24 24"><animateTransform attributeName="transform" dur="12s" from="0 24 24" repeatCount="indefinite" to="360 24 24" type="rotate"/><circle cx="24" cy="24" r="14" fill="url(#wk-gear)"/><g fill="url(#wk-gear)"><rect width="4" height="8" x="22" y="2" rx="1"/><rect width="4" height="8" x="22" y="38" rx="1"/><rect width="8" height="4" x="2" y="22" rx="1"/><rect width="8" height="4" x="38" y="22" rx="1"/><rect width="4" height="8" x="22" y="2" rx="1" transform="rotate(45 24 24)"/><rect width="4" height="8" x="22" y="2" rx="1" transform="rotate(-45 24 24)"/><rect width="4" height="8" x="22" y="38" rx="1" transform="rotate(45 24 24)"/><rect width="4" height="8" x="22" y="38" rx="1" transform="rotate(-45 24 24)"/></g></g></g><circle cx="24" cy="24" r="7" fill="#0B0F18"/><circle cx="24" cy="24" r="4" fill="url(#wk-core)"><animate attributeName="r" dur="1.8s" repeatCount="indefinite" values="3.4;4.6;3.4"/></circle></svg>