<svg xmlns="http://www.w3.org/2000/svg" width="48" height="48" aria-labelledby="t d" role="img" viewBox="0 0 48 48"><title id="t">Access control</title><desc id="d">Layered shield with keyhole representing access enforcement.</desc><defs><linearGradient id="ac-shield" x1=".2" x2=".8" y1="0" y2="1"><stop offset="0" stop-color="#F0CB6B"/><stop offset=".5" stop-color="#C8A24A"/><stop offset="1" stop-color="#7A5A14"/></linearGradient><linearGradient id="ac-hi" x1="0" x2="0" y1="0" y2="1"><stop offset="0" stop-color="#fff" stop-opacity=".45"/><stop offset=".5" stop-color="#fff" stop-opacity="0"/></linearGradient><radialGradient id="ac-key" cx=".5" cy=".4" r=".6"><stop offset="0" stop-color="#A8F4FB"/><stop offset=".6" stop-color="#22D6F6"/><stop offset="1" stop-color="#0E7A93"/></radialGradient><filter id="ac-sh" width="160%" height="140%" x="-30%" y="-20%"><feDropShadow dx="0" dy="1.6" flood-color="#0B0F18" flood-opacity=".7" stdDeviation="1.4"/></filter></defs><g filter="url(#ac-sh)"><path fill="url(#ac-shield)" d="M24 4 L40 11 V23 C40 32 33 39 24 44 C15 39 8 32 8 23 V11 Z"/><path fill="url(#ac-hi)" d="M24 4 L40 11 V23 C40 32 33 39 24 44 C15 39 8 32 8 23 V11 Z"/></g><circle cx="24" cy="22" r="4" fill="url(#ac-key)"/><rect width="2.6" height="6" x="22.7" y="24" fill="url(#ac-key)" rx="1.3"/><circle cx="24" cy="22" r="6" fill="none" stroke="#22D6F6" stroke-width=".6" opacity="0"><animate attributeName="r" dur="2.6s" repeatCount="indefinite" values="4;9;4"/><animate attributeName="opacity" dur="2.6s" repeatCount="indefinite" values="0.6;0;0.6"/></circle></svg>