<svg xmlns="http://www.w3.org/2000/svg" width="48" height="48" aria-labelledby="t d" role="img" viewBox="0 0 48 48"><title id="t">Branch operations</title><desc id="d">Command tower radiating to branch nodes, rendered with depth gradients.</desc><defs><linearGradient id="bo-tower" x1="0" x2="0" y1="0" y2="1"><stop offset="0" stop-color="#F0CB6B"/><stop offset=".5" stop-color="#C8A24A"/><stop offset="1" stop-color="#8A6A1F"/></linearGradient><linearGradient id="bo-node" x1="0" x2="1" y1="0" y2="1"><stop offset="0" stop-color="#7FE9FB"/><stop offset="1" stop-color="#22D6F6"/></linearGradient><radialGradient id="bo-glow" cx=".5" cy=".5" r=".5"><stop offset="0" stop-color="#22D6F6" stop-opacity=".7"/><stop offset="1" stop-color="#22D6F6" stop-opacity="0"/></radialGradient><filter id="bo-sh" width="160%" height="140%" x="-30%" y="-10%"><feDropShadow dx="0" dy="1.5" flood-color="#0B0F18" flood-opacity=".7" stdDeviation="1.5"/></filter></defs><g filter="url(#bo-sh)"><rect width="8" height="9" x="20" y="5" fill="url(#bo-tower)" rx="1.4"/></g><rect width="8" height="2" x="20" y="5" fill="#fff" opacity=".35"/><g fill="none" stroke="#C8A24A" stroke-linecap="round" stroke-width="1.4"><path d="M24 14 V20"/><path d="M24 20 L10 28"/><path d="M24 20 V28"/><path d="M24 20 L38 28"/></g><g filter="url(#bo-sh)"><rect width="8" height="9" x="6" y="27" fill="url(#bo-tower)" rx="1.4"/><rect width="8" height="9" x="20" y="27" fill="url(#bo-tower)" rx="1.4"/><rect width="8" height="9" x="34" y="27" fill="url(#bo-tower)" rx="1.4"/></g><g fill="#fff" opacity=".35"><rect width="8" height="2" x="6" y="27"/><rect width="8" height="2" x="20" y="27"/><rect width="8" height="2" x="34" y="27"/></g><g><circle cx="10" cy="42" r="2.5" fill="url(#bo-node)"><animate attributeName="r" dur="2s" repeatCount="indefinite" values="2.2;3;2.2"/></circle><circle cx="24" cy="42" r="2.5" fill="url(#bo-node)"><animate attributeName="r" begin="0.7s" dur="2s" repeatCount="indefinite" values="2.2;3;2.2"/></circle><circle cx="38" cy="42" r="2.5" fill="url(#bo-node)"><animate attributeName="r" begin="1.4s" dur="2s" repeatCount="indefinite" values="2.2;3;2.2"/></circle></g><circle cx="24" cy="9" r="6" fill="url(#bo-glow)" opacity=".4"><animate attributeName="opacity" dur="2.6s" repeatCount="indefinite" values="0.2;0.6;0.2"/></circle></svg>