<svg xmlns="http://www.w3.org/2000/svg" width="48" height="48" aria-labelledby="t d" role="img" viewBox="0 0 48 48"><title id="t">Catalog authority</title><desc id="d">Layered catalog pages forming a structured product index.</desc><defs><linearGradient id="ct-gold" x1="0" x2="0" y1="0" y2="1"><stop offset="0" stop-color="#F0CB6B"/><stop offset=".5" stop-color="#C8A24A"/><stop offset="1" stop-color="#8A6A1F"/></linearGradient><linearGradient id="ct-hi" x1="0" x2="0" y1="0" y2="1"><stop offset="0" stop-color="#fff" stop-opacity=".5"/><stop offset=".45" stop-color="#fff" stop-opacity="0"/></linearGradient><filter id="ct-sh" width="140%" height="140%" x="-20%" y="-20%"><feDropShadow dx="0" dy="1.5" flood-color="#0B0F18" flood-opacity=".7" stdDeviation="1.2"/></filter></defs><g filter="url(#ct-sh)"><rect width="36" height="7" x="6" y="10" fill="url(#ct-gold)" rx="2"/><rect width="36" height="7" x="6" y="10" fill="url(#ct-hi)" rx="2"/><rect width="36" height="7" x="6" y="20.5" fill="url(#ct-gold)" rx="2"/><rect width="36" height="7" x="6" y="20.5" fill="url(#ct-hi)" rx="2"/><rect width="36" height="7" x="6" y="31" fill="url(#ct-gold)" rx="2"/><rect width="36" height="7" x="6" y="31" fill="url(#ct-hi)" rx="2"/></g><g fill="#22D6F6"><rect width="6" height="1.6" x="11" y="13" rx=".8"/><rect width="6" height="1.6" x="11" y="23.5" rx=".8"/><rect width="6" height="1.6" x="11" y="34" rx=".8"/></g><g stroke="#0B0F18" stroke-opacity=".6" stroke-width=".5"><path d="M20 13.5 H37"/><path d="M20 24 H37"/><path d="M20 34.5 H37"/></g><circle cx="42" cy="13.5" r="1.4" fill="#22D6F6"><animate attributeName="opacity" dur="1.8s" repeatCount="indefinite" values="0.4;1;0.4"/></circle><circle cx="42" cy="24" r="1.4" fill="#22D6F6"><animate attributeName="opacity" begin="0.6s" dur="1.8s" repeatCount="indefinite" values="0.4;1;0.4"/></circle><circle cx="42" cy="34.5" r="1.4" fill="#22D6F6"><animate attributeName="opacity" begin="1.2s" dur="1.8s" repeatCount="indefinite" values="0.4;1;0.4"/></circle></svg>