<svg xmlns="http://www.w3.org/2000/svg" width="48" height="48" aria-labelledby="t d" role="img" viewBox="0 0 48 48"><title id="t">Dashboard</title><desc id="d">Control panel showing live metrics and tenant-scoped surfaces.</desc><defs><linearGradient id="db-frame" x1="0" x2="0" y1="0" y2="1"><stop offset="0" stop-color="#F0CB6B"/><stop offset=".55" stop-color="#C8A24A"/><stop offset="1" stop-color="#7A5A14"/></linearGradient><linearGradient id="db-screen" x1="0" x2="0" y1="0" y2="1"><stop offset="0" stop-color="#0F1A24"/><stop offset="1" stop-color="#06121F"/></linearGradient><linearGradient id="db-hi" x1="0" x2="0" y1="0" y2="1"><stop offset="0" stop-color="#fff" stop-opacity=".4"/><stop offset=".5" stop-color="#fff" stop-opacity="0"/></linearGradient><filter id="db-sh" width="140%" height="140%" x="-20%" y="-20%"><feDropShadow dx="0" dy="1.6" flood-color="#0B0F18" flood-opacity=".7" stdDeviation="1.4"/></filter></defs><g filter="url(#db-sh)"><rect width="40" height="28" x="4" y="8" fill="url(#db-frame)" rx="3"/><rect width="40" height="28" x="4" y="8" fill="url(#db-hi)" rx="3"/><rect width="35" height="23" x="6.5" y="10.5" fill="url(#db-screen)" rx="2"/></g><g stroke="#C8A24A" stroke-width="1" opacity=".6"><path d="M6.5 18 H41.5"/><path d="M18 18 V33.5"/></g><g fill="#22D6F6"><rect width="6" height="9" x="9" y="22" rx=".8"><animate attributeName="height" dur="2.4s" repeatCount="indefinite" values="9;5;9"/><animate attributeName="y" dur="2.4s" repeatCount="indefinite" values="22;26;22"/></rect><rect width="2" height="2" x="21" y="22"/><rect width="14" height="2" x="25" y="22"/><rect width="2" height="2" x="21" y="27"/><rect width="10" height="2" x="25" y="27"/><rect width="2" height="2" x="21" y="31.5"/><rect width="12" height="2" x="25" y="31.5"/></g><rect width="12" height="2" x="18" y="38" fill="#C8A24A" rx="1"/></svg>