<svg xmlns="http://www.w3.org/2000/svg" width="48" height="48" aria-labelledby="t d" role="img" viewBox="0 0 48 48"><title id="t">POS connectivity</title><desc id="d">Plug connecting authenticated POS integrations to the platform core.</desc><defs><linearGradient id="in-plug" x1="0" x2="0" y1="0" y2="1"><stop offset="0" stop-color="#F0CB6B"/><stop offset=".55" stop-color="#C8A24A"/><stop offset="1" stop-color="#7A5A14"/></linearGradient><linearGradient id="in-hi" x1="0" x2="0" y1="0" y2="1"><stop offset="0" stop-color="#fff" stop-opacity=".45"/><stop offset=".5" stop-color="#fff" stop-opacity="0"/></linearGradient><linearGradient id="in-socket" x1="0" x2="0" y1="0" y2="1"><stop offset="0" stop-color="#A8F4FB"/><stop offset="1" stop-color="#22D6F6"/></linearGradient><filter id="in-sh" width="140%" height="140%" x="-20%" y="-20%"><feDropShadow dx="0" dy="1.6" flood-color="#0B0F18" flood-opacity=".7" stdDeviation="1.4"/></filter></defs><g fill="none" stroke="#C8A24A" stroke-linecap="round" stroke-width="2"><path d="M18 4 V12"/><path d="M30 4 V12"/></g><g filter="url(#in-sh)"><rect width="20" height="14" x="14" y="12" fill="url(#in-plug)" rx="2.4"/><rect width="20" height="14" x="14" y="12" fill="url(#in-hi)" rx="2.4"/><rect width="8" height="6" x="20" y="26" fill="url(#in-plug)" rx="1.2"/></g><g filter="url(#in-sh)"><rect width="20" height="10" x="14" y="34" fill="url(#in-socket)" rx="2.4"/><rect width="20" height="10" x="14" y="34" fill="url(#in-hi)" rx="2.4"/></g><g fill="#0B0F18" opacity=".7"><rect width="2" height="4" x="20" y="37" rx=".5"/><rect width="2" height="4" x="26" y="37" rx=".5"/></g><circle cx="24" cy="32" r="1.5" fill="#22D6F6"><animate attributeName="cy" dur="2s" repeatCount="indefinite" values="32;38;32"/><animate attributeName="opacity" dur="2s" repeatCount="indefinite" values="0.3;1;0.3"/></circle></svg>