<svg xmlns="http://www.w3.org/2000/svg" width="48" height="48" aria-labelledby="t d" role="img" viewBox="0 0 48 48"><title id="t">Inventory</title><desc id="d">Stacked inventory boxes with depth and stock indicators.</desc><defs><linearGradient id="iv-box" x1="0" x2="0" y1="0" y2="1"><stop offset="0" stop-color="#F0CB6B"/><stop offset=".5" stop-color="#C8A24A"/><stop offset="1" stop-color="#7A5A14"/></linearGradient><linearGradient id="iv-hi" x1="0" x2="0" y1="0" y2="1"><stop offset="0" stop-color="#fff" stop-opacity=".5"/><stop offset=".5" stop-color="#fff" stop-opacity="0"/></linearGradient><filter id="iv-sh" width="140%" height="140%" x="-20%" y="-20%"><feDropShadow dx="0" dy="1.6" flood-color="#0B0F18" flood-opacity=".7" stdDeviation="1.4"/></filter></defs><g filter="url(#iv-sh)"><rect width="16" height="16" x="6" y="26" fill="url(#iv-box)" rx="2"/><rect width="16" height="16" x="6" y="26" fill="url(#iv-hi)" rx="2"/><rect width="16" height="16" x="26" y="26" fill="url(#iv-box)" rx="2"/><rect width="16" height="16" x="26" y="26" fill="url(#iv-hi)" rx="2"/><rect width="16" height="16" x="16" y="6" fill="url(#iv-box)" rx="2"/><rect width="16" height="16" x="16" y="6" fill="url(#iv-hi)" rx="2"/></g><g stroke="#0B0F18" stroke-width=".8" opacity=".4"><path d="M6 33 H22"/><path d="M26 33 H42"/><path d="M16 13 H32"/></g><g fill="#22D6F6"><rect width="2" height="2" x="13" y="29"/><rect width="2" height="2" x="33" y="29"/><rect width="2" height="2" x="23" y="9"/></g></svg>