<svg xmlns="http://www.w3.org/2000/svg" width="48" height="48" aria-labelledby="t d" role="img" viewBox="0 0 48 48"><title id="t">POS core</title><desc id="d">POS terminal with screen and counter base.</desc><defs><linearGradient id="pc-body" x1="0" x2="0" y1="0" y2="1"><stop offset="0" stop-color="#F0CB6B"/><stop offset=".5" stop-color="#C8A24A"/><stop offset="1" stop-color="#7A5A14"/></linearGradient><linearGradient id="pc-screen" x1="0" x2="0" y1="0" y2="1"><stop offset="0" stop-color="#A8F4FB"/><stop offset="1" stop-color="#22D6F6"/></linearGradient><linearGradient id="pc-hi" x1="0" x2="0" y1="0" y2="1"><stop offset="0" stop-color="#fff" stop-opacity=".45"/><stop offset=".5" stop-color="#fff" stop-opacity="0"/></linearGradient><filter id="pc-sh" width="140%" height="140%" x="-20%" y="-20%"><feDropShadow dx="0" dy="1.6" flood-color="#0B0F18" flood-opacity=".7" stdDeviation="1.4"/></filter></defs><g filter="url(#pc-sh)"><rect width="36" height="22" x="6" y="8" fill="url(#pc-body)" rx="3"/><rect width="36" height="22" x="6" y="8" fill="url(#pc-hi)" rx="3"/><rect width="30" height="13" x="9" y="11" fill="url(#pc-screen)" rx="1.5"/></g><g fill="#0B0F18" opacity=".55"><rect width="14" height="1.6" x="11" y="13"/><rect width="22" height="1.6" x="11" y="16"/><rect width="18" height="1.6" x="11" y="19"/></g><circle cx="36" cy="20" r="2" fill="#0B0F18" opacity=".8"><animate attributeName="opacity" dur="1.8s" repeatCount="indefinite" values="0.3;0.95;0.3"/></circle><g filter="url(#pc-sh)"><rect width="20" height="6" x="14" y="30" fill="url(#pc-body)" rx="1.4"/><rect width="20" height="6" x="14" y="30" fill="url(#pc-hi)" rx="1.4"/><rect width="40" height="6" x="4" y="36" fill="#5A4310" rx="1.4"/><rect width="40" height="2" x="4" y="36" fill="#fff" opacity=".18"/></g></svg>