<svg xmlns="http://www.w3.org/2000/svg" width="48" height="48" aria-labelledby="t d" role="img" viewBox="0 0 48 48"><title id="t">Secure core</title><desc id="d">Layered shield representing tenant isolation, token auth, and audit trail.</desc><defs><linearGradient id="se-shield" x1=".2" x2=".8" y1="0" y2="1"><stop offset="0" stop-color="#F0CB6B"/><stop offset=".5" stop-color="#C8A24A"/><stop offset="1" stop-color="#7A5A14"/></linearGradient><linearGradient id="se-inner" x1=".2" x2=".8" y1="0" y2="1"><stop offset="0" stop-color="#A8F4FB"/><stop offset=".5" stop-color="#22D6F6"/><stop offset="1" stop-color="#0E7A93"/></linearGradient><linearGradient id="se-hi" x1="0" x2="0" y1="0" y2="1"><stop offset="0" stop-color="#fff" stop-opacity=".45"/><stop offset=".5" stop-color="#fff" stop-opacity="0"/></linearGradient><filter id="se-sh" width="160%" height="140%" x="-30%" y="-20%"><feDropShadow dx="0" dy="1.6" flood-color="#0B0F18" flood-opacity=".7" stdDeviation="1.4"/></filter></defs><g filter="url(#se-sh)"><path fill="url(#se-shield)" d="M24 4 L40 11 V23 C40 32 33 39 24 44 C15 39 8 32 8 23 V11 Z"/><path fill="url(#se-hi)" d="M24 4 L40 11 V23 C40 32 33 39 24 44 C15 39 8 32 8 23 V11 Z"/></g><path fill="url(#se-inner)" d="M24 12 L34 16.5 V23.5 C34 29 29.5 33 24 36 C18.5 33 14 29 14 23.5 V16.5 Z" opacity=".9"/><circle cx="24" cy="24" r="3" fill="#0B0F18" opacity=".85"/><circle cx="24" cy="24" r="6" fill="none" stroke="#22D6F6" stroke-width=".6" opacity="0"><animate attributeName="r" dur="2.8s" repeatCount="indefinite" values="3;8;3"/><animate attributeName="opacity" dur="2.8s" repeatCount="indefinite" values="0.6;0;0.6"/></circle></svg>