<svg xmlns="http://www.w3.org/2000/svg" width="720" height="80" aria-label="Data Pulse platform signal" role="img" viewBox="0 0 720 80"><title>Data Pulse Platform Signal</title><desc>A heartbeat-style waveform representing live retail transaction events flowing through the Data Pulse platform. Three irregular spikes mark transaction peaks against a steady baseline.</desc><defs><linearGradient id="sig" x1="0" x2="1" y1="0" y2="0"><stop offset="0%" stop-color="#38bdf8"/><stop offset="100%" stop-color="#2dd4bf"/></linearGradient></defs><path fill="none" stroke="url(#sig)" stroke-linecap="round" stroke-linejoin="round" stroke-width="2" d="M 0,40 C 8,40 12,41 20,39 C 28,37 32,42 40,40 C 48,38 55,41 65,40 C 75,39 85,42 95,40 C 105,38 112,41 120,40 L 130,40 C 134,40 136,32 138,18 L 140,8 L 142,18 C 144,32 146,48 148,58 L 150,65 L 152,58 C 154,48 156,42 160,40 L 170,40 C 178,40 184,39 190,40 C 200,41 210,38 220,40 C 230,42 238,39 248,40 C 258,41 268,38 278,40 C 288,42 298,39 308,40 L 318,40 C 322,40 325,28 328,14 L 330,10 L 332,14 C 335,28 337,48 340,60 L 342,65 L 344,60 C 347,48 350,42 355,40 L 368,40 C 378,40 388,39 398,40 C 408,41 418,39 428,40 C 438,42 448,38 458,40 C 468,41 476,39 484,40 L 492,40 C 496,40 498,26 501,12 L 503,6 L 505,12 C 508,26 511,52 514,62 L 516,68 L 518,62 C 521,52 524,44 528,40 L 536,40 C 540,38 546,42 556,40 C 566,38 576,41 586,40 C 596,39 606,42 616,40 C 626,38 636,41 646,40 C 656,39 664,42 672,40 C 680,38 688,41 696,40 L 706,40"/><text x="710" y="44" fill="#67e8f9" font-family="Arial, sans-serif" font-size="11" font-weight="700" letter-spacing="2" opacity=".6" text-anchor="end">DATA PULSE</text></svg>